<svg xmlns="http://www.w3.org/2000/svg" x="0px" y="0px" fill="white" width="100" height="100" viewBox="0 0 50 50">
    <path d="M25,2 C19,2 14,7 14,13 C14,16 15,19 17,21 C14,22 11,24 9,27 C6,31 5,36 5,40 C5,42 6,44 8,45 C10,46 12,47 14,47 C16,47 18,46 20,45 C22,46 24,47 26,47 C28,47 30,46 32,45 C34,46 36,47 38,47 C40,47 42,46 44,45 C46,44 47,42 47,40 C47,36 46,31 43,27 C41,24 38,22 35,21 C37,19 38,16 38,13 C38,7 33,2 27,2 C26,2 26,2 25,2 z M25,6 C29,6 32,9 32,13 C32,16 30,18 27,18 C24,18 22,16 22,13 C22,9 25,6 25,6 z M16,24 C20,21 30,21 34,24 C37,26 39,28 40,31 C42,34 42,37 42,40 C40,41 38,42 36,42 C34,42 32,41 30,40 C29,39 27,38 25,38 C23,38 21,39 20,40 C18,41 16,42 14,42 C12,42 10,41 8,40 C8,37 8,34 10,31 C11,28 13,26 16,24 z"></path>
</svg>
